<svg width="24" height="19" fill="none" xmlns="http://www.w3.org/2000/svg"><path d="M19.855 2.236A18.692 18.692 0 0 0 15.24.806a.07.07 0 0 0-.074.034c-.2.355-.42.817-.575 1.18a17.255 17.255 0 0 0-5.181 0A11.94 11.94 0 0 0 8.827.84a.073.073 0 0 0-.074-.035 18.64 18.64 0 0 0-4.614 1.431.066.066 0 0 0-.03.026C1.17 6.652.365 10.934.76 15.164c.002.02.014.04.03.053a18.798 18.798 0 0 0 5.66 2.86c.03.01.06-.001.08-.025.435-.596.824-1.224 1.157-1.884a.072.072 0 0 0-.04-.1 12.37 12.37 0 0 1-1.767-.842.073.073 0 0 1-.007-.12 9.68 9.68 0 0 0 .35-.276.07.07 0 0 1 .074-.01c3.71 1.694 7.726 1.694 11.391 0a.07.07 0 0 1 .075.009c.113.094.232.187.351.276a.073.073 0 0 1-.006.12c-.564.33-1.151.61-1.769.842a.072.072 0 0 0-.038.101c.34.66.729 1.287 1.157 1.883.018.025.05.036.08.027a18.736 18.736 0 0 0 5.668-2.861.073.073 0 0 0 .03-.053c.472-4.889-.792-9.136-3.352-12.9a.058.058 0 0 0-.03-.028ZM8.24 12.588c-1.117 0-2.037-1.025-2.037-2.284 0-1.26.902-2.285 2.037-2.285 1.144 0 2.055 1.035 2.037 2.285 0 1.26-.902 2.284-2.037 2.284Zm7.532 0c-1.117 0-2.037-1.025-2.037-2.284 0-1.26.902-2.285 2.037-2.285 1.143 0 2.055 1.035 2.037 2.285 0 1.26-.894 2.284-2.037 2.284Z" fill="#fff"/></svg>